HIERARCHY
ROOT Hips
{
  OFFSET 206.468 35.1882 -219.895
  CHANNELS 6 Xposition Yposition Zposition Zrotation Xrotation Yrotation
  JOINT ToSpine
  {
    OFFSET -2.69724 7.43032 -0.144315
    CHANNELS 3 Zrotation Xrotation Yrotation
    JOINT Spine
    {
      OFFSET -0.0310711 10.7595 1.96963
      CHANNELS 3 Zrotation Xrotation Yrotation
      JOINT Spine1
      {
        OFFSET 19.9056 3.91189 0.764692
        CHANNELS 3 Zrotation Xrotation Yrotation
        JOINT Neck
        {
          OFFSET 25.9749 7.03908 -0.130764
          CHANNELS 3 Zrotation Xrotation Yrotation
          JOINT Head
          {
            OFFSET 9.52751 0.295786 -0.907742
            CHANNELS 3 Zrotation Xrotation Yrotation
            End Site
            {
              OFFSET 16.4037 0.713936 2.7358
            }
          }
        }
        JOINT LeftShoulder
        {
          OFFSET 17.7449 4.33886 11.7777
          CHANNELS 3 Zrotation Xrotation Yrotation
          JOINT LeftArm
          {
            OFFSET 0.911315 1.27913 9.80584
            CHANNELS 3 Zrotation Xrotation Yrotation
            JOINT LeftForeArm
            {
              OFFSET 28.6126 1.18197 -3.53199
              CHANNELS 3 Zrotation Xrotation Yrotation
              JOINT LeftHand
              {
                OFFSET 27.5088 0.0218783 0.327423
                CHANNELS 3 Zrotation Xrotation Yrotation
                End Site
                {
                  OFFSET 18.6038 -0.000155887 0.382096
                }
              }
            }
          }
        }
        JOINT RightShoulder
        {
          OFFSET 17.1009 2.89543 -12.2328
          CHANNELS 3 Zrotation Xrotation Yrotation
          JOINT RightArm
          {
            OFFSET 1.4228 0.178766 -10.211
            CHANNELS 3 Zrotation Xrotation Yrotation
            JOINT RightForeArm
            {
              OFFSET 28.733 1.87905 2.64907
              CHANNELS 3 Zrotation Xrotation Yrotation
              JOINT RightHand
              {
                OFFSET 27.4588 0.290562 -0.101845
                CHANNELS 3 Zrotation Xrotation Yrotation
                End Site
                {
                  OFFSET 17.8396 -0.255518 -0.000602873
                }
              }
            }
          }
        }
      }
    }
  }
  JOINT LeftUpLeg
  {
    OFFSET -5.61296 -2.22332 -10.2353
    CHANNELS 3 Zrotation Xrotation Yrotation
    JOINT LeftLeg
    {
      OFFSET 2.56703 -44.7417 -7.93097
      CHANNELS 3 Zrotation Xrotation Yrotation
      JOINT LeftFoot
      {
        OFFSET 3.16933 -46.5642 -3.96578
        CHANNELS 3 Zrotation Xrotation Yrotation
        JOINT LeftToeBase
        {
          OFFSET 0.346054 -6.02161 12.8035
          CHANNELS 3 Zrotation Xrotation Yrotation
          End Site
          {
            OFFSET 0.134235 -1.35082 5.13018
          }
        }
      }
    }
  }
  JOINT RightUpLeg
  {
    OFFSET -5.7928 -1.72406 10.6446
    CHANNELS 3 Zrotation Xrotation Yrotation
    JOINT RightLeg
    {
      OFFSET -2.57161 -44.7178 -7.85259
      CHANNELS 3 Zrotation Xrotation Yrotation
      JOINT RightFoot
      {
        OFFSET -3.10148 -46.5936 -4.03391
        CHANNELS 3 Zrotation Xrotation Yrotation
        JOINT RightToeBase
        {
          OFFSET -0.0828122 -6.13587 12.8035
          CHANNELS 3 Zrotation Xrotation Yrotation
          End Site
          {
            OFFSET -0.131328 -1.35082 5.13018
          }
        }
      }
    }
  }
}
MOTION
Frames:	18
Frame Time:	0.0333333
82.5916 101.998 -108.576 -76.5599 -42.0063 -168.993 -70.1915 0 88.8779 101.112 75.8315 -8.41201 3.2011 25.5322 2.38255 -146.707 18.9682 172.576 -153.003 56.4371 166.684 2.85917 -0.0172991 -29.7774 -113.754 53.1671 -75.1379 -12.3648 57.9803 14.1237 3.54482 -0.0925757 -1.29492 0.234704 -0.468093 29.7829 -67.3429 -43.3098 111.077 10.0108 -13.0041 28.8294 6.65848 -0.047333 -1.2676 -40.9461 -3.98376 90.9582 1.01204 23.721 -8.99692 2.71309 5.93074 -0.154995 -5.69601 -14.5087 19.4131 -77.0257 4.11006 81.2338 0.358438 33.2185 14.8384 -6.53506 -10.1643 1.11187 6.99845 -6.42529 -15.0376 
79.3826 101.554 -105.148 -76.2998 -41.5096 -169.493 -70.1915 0 88.8779 99.4028 76.3318 -7.33344 2.87568 26.2246 1.41869 -146.472 18.9933 171.301 -152.536 56.4958 166.283 2.77941 -0.212215 -29.2732 -114.539 53.0989 -75.4557 -12.3421 59.2235 14.6207 4.33193 -0.0919335 -0.769415 0.254514 -0.587413 30.4655 -68.377 -44.6582 108.137 10.3806 -13.0811 29.9926 7.10595 -0.0794225 -1.77162 -40.9048 -5.30015 88.6435 0.227796 27.7251 -5.79696 3.2391 6.61225 -0.21561 -5.2817 -11.9026 17.8023 -78.2473 3.87474 85.2774 1.57157 35.1197 10.7234 -6.47014 -8.76665 1.0882 6.42744 -7.67506 -12.2336 
76.3296 101.304 -101.693 -76.4642 -41.5592 -171.117 -70.1915 0 88.8779 97.3152 76.7068 -7.19714 3.12809 26.5246 0.686044 -147.232 18.9063 170.986 -153.124 56.5028 166.325 2.78663 -0.190628 -29.312 -114.543 52.9059 -76.5399 -12.1333 59.208 14.6138 4.75571 -0.105903 -0.876002 0.275586 -0.709808 30.6234 -67.7442 -46.149 106.296 10.3384 -12.5826 30.8552 7.1827 -0.0875241 -1.89648 -41.6546 -7.80791 86.6334 -0.287996 30.8278 -2.93714 3.78286 9.95207 -0.182997 -5.14377 -13.6411 15.1504 -78.1891 1.49145 85.9937 2.3643 39.8871 8.84725 -5.66548 -8.16682 1.03811 4.17725 -4.59917 -7.70256 
73.5408 100.991 -98.5551 -76.3844 -42.047 -172.896 -70.1915 0 88.8779 95.8575 76.8838 -8.33451 2.99959 26.3473 0.271448 -147.372 19.0704 171.387 -153.605 56.7674 166.983 2.80441 -0.409434 -29.9418 -113.924 52.3233 -78.4047 -11.8756 58.7316 14.4092 5.79809 -0.115145 -0.606061 0.284205 -0.766429 30.048 -66.2192 -48.2089 106.117 10.6543 -13.8044 29.5514 6.90095 -0.0586599 -1.4391 -41.7996 -10.7603 85.2741 -0.918119 34.7612 1.40988 5.35189 11.6357 -0.462807 -5.21811 -16.8929 11.4446 -75.2268 -2.31986 84.2672 2.87327 48.1212 6.27939 -4.97614 -6.55374 0.957276 -2.20854 2.09908 3.65421 
70.8371 100.831 -95.6305 -76.4898 -42.5015 -174.111 -70.1915 0 88.8779 96.605 76.6889 -11.3241 2.37537 25.8813 0.413368 -148.177 19.1681 171.9 -154.372 56.9417 167.306 2.74364 -0.485122 -29.4015 -114.063 53.1953 -79.669 -11.5888 58.6572 14.3778 6.57566 -0.135799 -0.685574 0.30757 -0.913848 29.6796 -63.5839 -49.8313 106.863 10.4152 -14.0472 28.3114 6.0447 -0.0689201 -1.82664 -42.8923 -12.5823 85.3622 -1.16116 37.3512 2.46531 6.27608 10.4377 -0.686517 -5.23453 -17.2778 10.9142 -70.4742 -4.25833 84.9472 3.64159 57.3161 1.39188 -3.29184 -1.99826 0.652846 -14.8401 16.1735 17.8322 
68.2256 100.778 -92.8405 -77.0363 -42.1336 -175.649 -70.1915 0 88.8779 97.2424 76.5662 -13.5987 2.64379 25.6233 -0.119364 -148.806 18.785 172.361 -153.373 56.2355 166.223 2.6862 -0.491089 -28.7554 -113.565 54.2798 -82.1219 -11.386 58.4125 14.2763 6.95358 -0.157804 -0.905938 0.259644 -0.619296 29.9676 -63.3893 -51.2053 106.222 10.3015 -14.7012 26.8297 5.3531 -0.0345572 -1.20904 -44.5862 -13.4167 86.8608 -1.20924 38.9942 2.86596 6.847 8.63356 -0.828638 -5.28304 -18.0402 9.9231 -65.1352 -4.62014 87.8392 5.79337 66.2902 -1.30903 -2.83721 1.20551 0.456919 -5.85453 10.8438 4.88957 
65.3358 101 -90.0027 -78.4608 -42.2201 -177.268 -70.1915 0 88.8779 97.7438 76.2356 -15.9604 3.13375 24.8322 0.553004 -148.788 18.4386 173.536 -153.382 55.7958 166.557 2.72038 -0.637318 -29.4379 -112.046 54.2483 -85.8912 -11.8141 59.0921 14.5663 7.74673 -0.245382 -1.88685 0.255091 -0.591884 29.948 -62.4008 -51.9182 106.582 9.57027 -14.7596 24.5382 4.98696 -0.0780054 -2.42123 -48.0185 -13.9887 87.8779 -0.959503 39.3231 1.89196 7.44497 7.65707 -0.951927 -5.60174 -19.9272 9.84538 -60.671 -4.83183 89.1062 8.48863 72.791 -5.89289 -3.79507 0.171421 0.62291 -2.79576 7.99638 0.428337 
62.6377 101.395 -87.2771 -78.2346 -42.3624 -176.469 -70.1915 0 88.8779 96.7759 75.7002 -14.9044 2.89408 24.0293 0.948609 -148.014 18.1788 173.999 -151.974 55.1534 165.475 2.72255 -0.589758 -29.3675 -111.092 55.3151 -89.4675 -11.5274 58.8022 14.4456 7.58571 -0.176304 -0.962775 0.296058 -0.837918 30.0259 -65.332 -52.984 103.484 9.98071 -18.6989 23.0302 3.79991 -0.0623138 -2.62626 -50.2606 -13.5262 88.4123 -0.350362 39.504 0.405106 7.72622 6.74229 -1.00879 -5.89524 -21.6059 9.86986 -55.1256 -3.99506 89.1389 11.3154 76.5786 -9.87031 -4.17674 -1.16688 0.716509 -3.66764 11.6834 -0.179084 
59.4878 101.878 -84.2387 -79.203 -43.2294 -176.428 -70.1915 0 88.8779 96.6854 74.9857 -15.0141 2.8996 22.9836 1.51142 -147.042 17.9216 174.662 -153.298 55.088 166.199 2.67652 -0.567931 -28.7924 -109.408 56.5591 -92.8829 -11.6019 58.3942 14.2835 8.64204 -0.234084 -1.3817 0.323132 -1.00201 29.9686 -70.2126 -54.2613 98.0863 8.56572 -19.8971 21.1973 3.97204 -0.0636912 -2.55681 -54.1326 -12.5767 90.7736 1.21181 38.9843 -3.90198 7.57686 5.36525 -0.990971 -6.06395 -22.5871 9.74892 -51.9251 -3.21606 88.5193 11.7435 76.924 -10.0873 -4.33079 -1.54223 0.746306 -2.56708 11.3791 -2.28769 
56.562 102.159 -81.4916 -78.76 -44.4481 -175.655 -70.1915 0 88.8779 94.495 74.2818 -13.6877 2.09341 21.8634 2.69943 -145.881 17.451 174.359 -153.091 54.4737 165.179 2.63624 -0.384068 -27.9845 -106.397 57.8864 -97.269 -11.4014 56.0609 13.434 9.68293 -0.155885 -0.165425 0.326352 -1.02193 29.9483 -73.4161 -54.8721 93.5321 7.17426 -20.0722 19.8521 4.99232 -0.1034 -3.08451 -56.7094 -10.956 94.6512 2.37606 38.4674 -10.2881 8.11197 4.19451 -1.082 -6.15155 -22.9345 10.6757 -47.7782 -2.67739 87.7444 10.9831 75.7989 -7.96277 -4.98716 -3.76647 0.87965 -0.772851 11.5166 -6.17889 
53.4819 102.501 -78.8162 -77.1844 -46.2613 -173.581 -70.1915 0 88.8779 89.3282 73.4803 -9.28038 1.76764 20.5464 4.31246 -144.993 17.2241 174.109 -153.44 54.3353 165.387 2.57269 -0.420213 -27.3252 -102.96 58.7879 -102.01 -12.2749 56.363 13.5355 10.6799 -0.429943 -2.83503 0.33181 -1.05144 30.0753 -77.1384 -55.1047 88.4011 6.12659 -20.2131 18.7997 5.39439 -0.132295 -3.5482 -58.8078 -8.86825 97.6369 3.03829 37.6544 -16.1577 8.5583 2.72829 -1.14876 -6.03708 -22.3119 10.3973 -43.9229 -2.37815 85.7531 8.35519 72.1394 -4.34541 -5.49922 -4.68842 0.947102 2.56522 7.46992 -11.4269 
50.4702 102.644 -76.0708 -76.9562 -47.8019 -172.632 -70.1915 0 88.8779 88.4727 72.8125 -8.60343 1.78461 19.7636 5.01982 -144.537 17.2388 173.815 -153.153 54.3364 165.318 2.57889 -0.371205 -27.3093 -97.9564 58.7813 -108.586 -12.7381 54.468 12.9158 8.14871 -0.170412 -0.704483 0.373211 -1.29128 30.2837 -80.4991 -54.9827 83.8732 5.60818 -21.1232 18.0313 5.17442 -0.138422 -3.85659 -62.0087 -6.93231 100.195 3.2422 36.6272 -20.7025 8.96628 1.04322 -1.19808 -5.94648 -21.8235 10.2093 -41.9922 -2.25805 84.0218 5.45819 65.97 -1.65072 -5.48534 -5.37524 0.962289 3.4534 3.3263 -11.2555 
47.7837 102.814 -73.5045 -75.6891 -48.9416 -171.194 -70.1915 0 88.8779 87.041 72.264 -7.18625 1.36239 19.3563 5.49623 -144.029 17.1446 172.962 -152.252 54.1504 164.824 2.52502 -0.416574 -26.7737 -93.8581 58.9407 -114.325 -12.9866 52.958 12.4699 9.0409 -0.304077 -2.10236 0.390917 -1.38365 30.5675 -83.8207 -54.8016 79.6207 4.75497 -22.6377 16.827 5.61296 -0.14941 -3.80108 -64.2503 -5.88117 101.109 3.0095 35.446 -23.2509 8.44483 0.439138 -1.13007 -5.8129 -20.9406 10.5898 -39.9689 -2.4903 82.4141 3.47831 57.8771 0.361527 -5.20592 -6.19054 0.962657 4.16781 4.42927 -13.6784 
45.0961 103.074 -70.7598 -74.7995 -49.6987 -170.213 -70.1915 0 88.8779 84.9941 71.8252 -4.74723 1.81885 19.2099 5.55111 -143.95 17.2714 172.907 -152.873 54.4607 165.435 2.52303 -0.328643 -26.6015 -89.2525 58.3438 -120.078 -12.5261 51.4609 10.7927 7.96506 -0.270815 -2.14195 0.37149 -1.26156 30.8002 -88.3814 -54.3669 74.7371 4.10453 -25.3154 15.4215 5.37271 -0.128933 -3.48172 -67.7262 -5.19363 101.634 2.40076 32.5262 -24.7965 8.80021 0.529081 -1.17451 -6.02093 -22.0135 11.3464 -39.7371 -2.66968 80.8869 2.26674 47.2056 2.88504 -5.93896 -5.92763 1.00739 4.20087 5.4624 -14.3023 
42.6445 103.365 -68.1628 -73.1513 -51.5287 -168.247 -70.1915 0 88.8779 83.5931 70.9494 -2.86758 2.26696 18.5315 5.75127 -143.96 17.5368 172.991 -153.606 54.924 166.171 2.47028 -0.528795 -26.3347 -85.7197 57.8757 -124.627 -10.0816 52.6464 6.81287 8.631 -0.283108 -2.01064 0.398908 -1.41793 30.8398 -91.2391 -54.0957 71.4065 3.5601 -27.0836 14.3363 5.02794 -0.134009 -3.85826 -70.3092 -4.77398 101.212 2.7443 30.1505 -27.0536 7.06438 0.575916 -0.95737 -5.90764 -21.2223 11.6642 -40.4389 -3.49131 77.8438 1.54513 35.0919 4.57271 -5.42721 -5.82357 0.96881 1.68433 10.7738 -11.1311 
40.203 103.586 -65.4738 -72.2529 -52.9254 -167.285 -70.1915 0 88.8779 82.6183 70.3551 -1.42206 3.3809 18.1267 5.59874 -144.257 17.7162 172.973 -153.33 55.0402 165.838 2.45238 -0.60852 -26.2617 -83.3115 57.3931 -127.846 -7.35022 52.0927 2.89672 8.95957 -0.353049 -2.73796 0.410505 -1.48634 30.8055 -94.6361 -53.7534 67.9814 3.31038 -29.0131 13.3462 4.21999 -0.113907 -4.00468 -73.6959 -4.59243 101.001 2.81616 27.1804 -29.4331 6.50029 2.27598 -0.860157 -6.13554 -22.6509 11.7217 -42.0771 -3.16089 80.0536 2.54644 23.5474 2.16887 -4.84325 -4.9606 0.901781 1.26277 13.3403 -11.4637 
37.5489 103.545 -62.859 -71.7899 -54.4764 -166.22 -70.1915 0 88.8779 83.3895 69.8052 -1.52054 4.223 17.5973 5.67828 -144.114 17.9852 172.663 -152.079 55.0727 164.833 2.39381 -0.922137 -26.1057 -81.0637 56.7816 -130.08 -5.0866 51.7031 -0.622428 9.30073 -0.365016 -2.72125 0.463677 -1.78742 30.8913 -97.6467 -53.2525 65.0662 3.00497 -30.3672 12.3055 2.6002 -0.0640449 -4.10327 -76.4879 -3.8126 100.837 3.59283 25.8102 -31.6762 5.46459 2.71538 -0.704572 -6.30516 -23.7603 11.359 -43.3344 -2.30001 83.0812 2.56544 16.2825 -2.43011 -4.64994 -5.58214 0.90583 1.58531 13.6767 -12.3042 
34.4753 103.039 -60.0727 -71.3436 -55.5824 -165.338 -70.1915 0 88.8779 84.0436 69.4533 -1.9445 4.30173 17.0451 6.43515 -144.151 18.2813 173.172 -152.008 55.3096 164.765 2.39448 -1.02216 -26.2899 -80.0779 56.6919 -130.741 -3.73011 52.3389 -2.548 9.47832 -0.328545 -2.21598 0.475019 -1.85731 30.8201 -99.476 -52.6504 63.0302 2.69217 -31.0224 11.4727 2.20605 -0.05463 -4.35437 -78.1909 -2.92416 100.213 4.37284 26.8828 -33.1924 4.99146 3.32833 -0.619142 -6.72689 -26.2869 10.5564 -43.5891 -2.50133 82.5945 3.07048 15.2167 -4.46077 -4.79142 -6.50678 0.943866 2.15845 12.7082 -13.0901 
